<svg width="958" height="351" viewBox="0 0 958 351" fill="none" xmlns="http://www.w3.org/2000/svg">
<path fill-rule="evenodd" clip-rule="evenodd" d="M0 73.3928L39.9167 63.819C79.8333 54.2452 159.667 35.0976 239.5 49.4583C319.333 63.819 399.167 111.688 479 102.114C558.833 92.5405 638.667 25.5238 718.5 6.37614C798.333 -12.7715 878.167 15.95 918.083 30.3107L958 44.6714V217H918.083C878.167 217 798.333 217 718.5 217C638.667 217 558.833 217 479 217C399.167 217 319.333 217 239.5 217C159.667 217 79.8333 217 39.9167 217H0V73.3928Z" fill="#E0E0E0"/>
<path fill-rule="evenodd" clip-rule="evenodd" d="M958 154.072L917.958 158.042C877.916 163.005 797.833 172.93 718.75 158.042C638.667 144.147 558.583 106.432 478.499 87.5745C399.417 67.7245 319.333 67.7245 239.25 82.612C159.166 96.5071 80.0836 125.29 40.0417 139.185L-6.10352e-05 154.072V296H40.0417C80.0836 296 159.166 296 239.25 296C319.333 296 399.417 296 478.499 296C558.583 296 638.667 296 718.75 296C797.833 296 877.916 296 917.958 296H958V154.072Z" fill="#8C94B4"/>
<path fill-rule="evenodd" clip-rule="evenodd" d="M0 207.011L39.9167 221.41C79.8333 235.809 159.667 264.607 239.5 259.807C319.333 255.007 399.167 216.61 479 192.612C558.833 168.614 638.667 159.015 718.5 178.213C798.333 197.412 878.167 245.408 918.083 269.406L958 293.404V351H918.083C878.167 351 798.333 351 718.5 351C638.667 351 558.833 351 479 351C399.167 351 319.333 351 239.5 351C159.667 351 79.8333 351 39.9167 351H0V207.011Z" fill="#3A5AB9"/>
</svg>
